<?xml version="1.0" encoding="utf-8"?>
<!-- Generator: Adobe Illustrator 27.5.0, SVG Export Plug-In . SVG Version: 6.00 Build 0)  -->
<svg version="1.1" xmlns="http://www.w3.org/2000/svg" xmlns:xlink="http://www.w3.org/1999/xlink" x="0px" y="0px"
	 viewBox="0 0 500 500" style="enable-background:new 0 0 500 500;" xml:space="preserve">
<g id="BACKGROUND">
	<rect style="fill:#E0E3E9;" width="500" height="500"/>
</g>
<g id="OBJECTS">
	<g>
		<g>
			<rect x="201.404" y="123.484" style="fill:#FFFFFF;" width="221.226" height="224.552"/>
			<g>
				<rect x="208.302" y="131.726" style="fill:#BBCECF;" width="37.773" height="37.321"/>
				<rect x="208.302" y="304.336" style="fill:#BBCECF;" width="37.773" height="37.321"/>
				<rect x="208.302" y="176.356" style="fill:#BBCECF;" width="37.773" height="120.672"/>
				<rect x="378.199" y="131.726" style="fill:#BBCECF;" width="37.773" height="37.321"/>
				<rect x="378.199" y="304.336" style="fill:#BBCECF;" width="37.773" height="37.321"/>
				<rect x="378.199" y="176.356" style="fill:#BBCECF;" width="37.773" height="120.672"/>
				<rect x="250.688" y="131.726" style="fill:#BBCECF;" width="122.918" height="37.321"/>
				<rect x="250.688" y="304.336" style="fill:#BBCECF;" width="122.918" height="37.321"/>
				<rect x="250.688" y="176.356" style="fill:#BBCECF;" width="122.918" height="120.672"/>
			</g>
			<polygon style="fill:#CEDDDD;" points="354.285,131.725 324.363,169.049 250.687,169.049 250.687,139.997 257.318,131.725 			"/>
			<polygon style="fill:#CEDDDD;" points="246.077,145.747 246.077,169.049 227.397,169.049 			"/>
			<polygon style="fill:#CEDDDD;" points="318.504,176.358 250.687,260.952 250.687,176.358 			"/>
			<polygon style="fill:#CEDDDD;" points="246.077,176.358 246.077,266.702 221.767,297.026 208.301,297.026 208.301,192.869 
				221.538,176.358 			"/>
			<polygon style="fill:#CEDDDD;" points="373.605,176.358 373.605,229.868 319.767,297.026 265.054,297.026 361.79,176.358 			"/>
			<polygon style="fill:#CEDDDD;" points="313.908,304.335 283.986,341.659 250.687,341.659 250.687,314.948 259.195,304.335 			"/>
			<polygon style="fill:#D9E5F9;" points="373.605,161.62 373.605,169.049 367.649,169.049 			"/>
			<polygon style="fill:#CEDDDD;" points="246.077,320.697 229.273,341.659 246.075,341.657 			"/>
			<polygon style="fill:#CEDDDD;" points="208.302,304.336 208.301,313.824 215.908,304.335 			"/>
			<polygon style="fill:#CEDDDD;" points="378.199,157.397 397.086,131.725 415.973,131.725 415.973,169.046 378.199,169.046 			"/>
			<polygon style="fill:#CEDDDD;" points="378.199,176.355 415.973,176.355 415.973,179.187 378.199,225.804 			"/>
		</g>
		<g>
			<rect x="76.127" y="123.484" style="fill:#FFFFFF;" width="108.982" height="263.857"/>
			<g>
				<rect x="88.383" y="131.725" style="fill:#BBCECF;" width="88.933" height="76.525"/>
				<rect x="88.383" y="215.735" style="fill:#BBCECF;" width="88.933" height="76.525"/>
				<rect x="88.383" y="299.745" style="fill:#BBCECF;" width="88.933" height="76.525"/>
				<polygon style="fill:#CEDDDD;" points="177.317,131.724 177.317,208.252 88.38,208.252 88.38,200.4 157.056,131.724 				"/>
				<polygon style="fill:#CEDDDD;" points="177.317,215.736 177.317,230.372 115.417,292.264 88.38,292.264 88.38,215.736 				"/>
				<polygon style="fill:#CEDDDD;" points="177.317,270.715 177.317,292.264 155.776,292.264 				"/>
				<polygon style="fill:#CEDDDD;" points="177.317,299.741 177.317,376.269 88.38,376.269 88.38,359.66 148.299,299.741 				"/>
				<polygon style="fill:#CEDDDD;" points="88.383,299.745 111.938,299.745 88.38,322.997 				"/>
			</g>
			<rect x="79.632" y="230.719" style="fill:#E0A23C;" width="6.446" height="42.201"/>
		</g>
		<g>
			<polygon style="fill:#E37F4F;" points="89.147,56.7 64.284,89.797 433.345,89.797 415.689,56.7 			"/>
			<path style="fill:#C6633C;" d="M106.285,89.799c0,1.655-0.188,3.27-0.555,4.81c-2.177,9.279-10.501,16.185-20.449,16.185
				c-11.594,0-20.995-9.401-20.995-20.995H106.285z"/>
			<path style="fill:#C6633C;" d="M147.166,89.799c0,1.655-0.188,3.27-0.554,4.81c-2.177,9.279-10.502,16.185-20.449,16.185
				c-9.939,0-18.264-6.906-20.433-16.185c-0.375-1.541-0.563-3.155-0.563-4.81H147.166z"/>
			<path style="fill:#C6633C;" d="M188.047,89.799c0,1.655-0.188,3.27-0.554,4.81c-2.177,9.279-10.502,16.185-20.441,16.185
				c-9.947,0-18.272-6.906-20.441-16.185c-0.375-1.541-0.563-3.155-0.563-4.81H188.047z"/>
			<path style="fill:#C6633C;" d="M228.928,89.799c0,1.647-0.188,3.253-0.554,4.794c-2.161,9.287-10.493,16.201-20.441,16.201
				c-9.947,0-18.272-6.906-20.441-16.185c-0.375-1.541-0.563-3.155-0.563-4.81H228.928z"/>
			<path style="fill:#C6633C;" d="M269.809,89.799c0,1.647-0.188,3.253-0.555,4.794c-2.161,9.287-10.493,16.201-20.44,16.201
				c-9.947,0-18.28-6.914-20.441-16.201c-0.367-1.541-0.554-3.147-0.554-4.794H269.809z"/>
			<path style="fill:#C6633C;" d="M310.699,89.799c0,1.655-0.188,3.27-0.555,4.81c-2.177,9.279-10.501,16.185-20.449,16.185
				c-9.947,0-18.28-6.914-20.441-16.201c-0.367-1.541-0.554-3.147-0.554-4.794H310.699z"/>
			<path style="fill:#C6633C;" d="M351.58,89.799c0,1.655-0.188,3.27-0.554,4.81c-2.177,9.279-10.502,16.185-20.449,16.185
				c-9.939,0-18.264-6.906-20.432-16.185c-0.375-1.541-0.563-3.155-0.563-4.81H351.58z"/>
			<path style="fill:#C6633C;" d="M392.461,89.799c0,1.655-0.188,3.27-0.554,4.81c-2.177,9.279-10.502,16.185-20.441,16.185
				c-9.947,0-18.272-6.906-20.44-16.185c-0.375-1.541-0.563-3.155-0.563-4.81H392.461z"/>
			<path style="fill:#C6633C;" d="M433.342,89.799c0,11.594-9.401,20.995-20.995,20.995c-9.947,0-18.272-6.906-20.44-16.185
				c-0.375-1.541-0.563-3.155-0.563-4.81H433.342z"/>
			
				<line style="fill:none;stroke:#C6633C;stroke-width:0.8153;stroke-miterlimit:10;" x1="105.168" y1="89.799" x2="123.679" y2="56.7"/>
			
				<line style="fill:none;stroke:#C6633C;stroke-width:0.8153;stroke-miterlimit:10;" x1="146.049" y1="89.799" x2="159.132" y2="56.7"/>
			
				<line style="fill:none;stroke:#C6633C;stroke-width:0.8153;stroke-miterlimit:10;" x1="186.93" y1="89.799" x2="197.81" y2="56.7"/>
			
				<line style="fill:none;stroke:#C6633C;stroke-width:0.8153;stroke-miterlimit:10;" x1="227.819" y1="89.799" x2="231.998" y2="56.7"/>
			
				<line style="fill:none;stroke:#C6633C;stroke-width:0.8153;stroke-miterlimit:10;" x1="392.461" y1="89.799" x2="373.95" y2="56.7"/>
			
				<line style="fill:none;stroke:#C6633C;stroke-width:0.8153;stroke-miterlimit:10;" x1="351.58" y1="89.799" x2="338.497" y2="56.7"/>
			
				<line style="fill:none;stroke:#C6633C;stroke-width:0.8153;stroke-miterlimit:10;" x1="310.699" y1="89.799" x2="299.818" y2="56.7"/>
			
				<line style="fill:none;stroke:#C6633C;stroke-width:0.8153;stroke-miterlimit:10;" x1="269.809" y1="89.799" x2="265.631" y2="56.7"/>
			<g>
				<polygon style="fill:#E0A23C;" points="89.147,56.7 89.147,0 415.973,0 415.689,56.7 				"/>
				<path style="fill:#C68424;" d="M104.318,28.35L104.318,28.35c0-9.665,7.835-17.5,17.499-17.5h261.356
					c9.715,0,17.57,7.913,17.499,17.628l0,0c-0.07,9.614-7.884,17.371-17.499,17.371H121.817
					C112.153,45.85,104.318,38.015,104.318,28.35z"/>
			</g>
		</g>
	</g>
	<g>
		<defs>
			<rect id="SVGID_1_" width="500" height="500"/>
		</defs>
		<clipPath id="SVGID_00000180350426807840421240000001519922474753515650_">
			<use xlink:href="#SVGID_1_"  style="overflow:visible;"/>
		</clipPath>
		<g style="clip-path:url(#SVGID_00000180350426807840421240000001519922474753515650_);">
			<path style="fill:#25405C;" d="M47.893,311.729c-7.37,15.413-27.416,20.68-36.762,34.981c6.509-5.349,13.669-9.905,21.272-13.538
				c3.168-1.514,6.523-2.891,10.034-2.898c3.511-0.007,7.231,1.65,8.738,4.822c1.704,3.587,0.067,8.069-2.873,10.74
				c-2.939,2.671-6.889,3.899-10.75,4.832c-7.005,1.694-14.18,2.675-21.107,4.666c-6.927,1.99-13.739,5.109-18.687,10.35
				c9.199-4.354,19.174-7.062,29.311-7.958c2.903-0.257,5.937-0.345,8.61,0.815c2.673,1.16,4.867,3.903,4.494,6.793
				c-0.23,1.784-1.38,3.338-2.766,4.485c-5.637,4.664-13.887,3.127-21.199,2.853c-9.935-0.373-19.962,2.16-28.529,7.207
				c5.651-0.684,11.302-1.369,16.953-2.053c4.607-0.558,9.411-1.096,13.784,0.458c2.853,1.015,5.677,3.585,5.143,6.566
				c-0.353,1.972-2.085,3.414-3.892,4.28c-5.181,2.48-11.249,1.548-16.975,1.093c-10.694-0.85-19.414-1.133-31.877,3.034
				c-1.387,0.012-3.164-2.213-2.148-4.088c1.016-1.876,3.132-4.517,4.234-6.343c3.58-5.929,4.315-16.6,2.086-24.225
				c-2.228-7.625-4.483-12.105-7.622-19.402c-0.808-1.878-1.552-3.885-1.311-5.915c0.242-2.03,1.788-4.046,3.83-4.129
				c1.35-0.055,2.599,0.715,3.61,1.612c3.482,3.09,5.071,7.732,6.52,12.157c1.622,4.951,3.244,9.901,4.866,14.852
				c0.373,1.14,1.07,2.514,2.267,2.438c0.792-13.762-7.335-26.814-6.854-40.59c0.075-2.142,0.469-4.489,2.106-5.873
				c2.869-2.425,7.598-0.05,9.064,3.409c1.467,3.459,0.819,7.389,0.624,11.141c-0.393,7.539,1.196,15.172,4.565,21.927
				c1.656,0.305,2.33-2.055,2.254-3.737c-0.333-7.364-1.245-14.729-0.759-22.085c0.485-7.355,2.517-14.874,7.342-20.446
				c1.313-1.516,2.897-2.913,4.838-3.421c1.94-0.508,4.284,0.107,5.284,1.846c0.475,0.826,0.606,1.801,0.671,2.751
				c0.901,13.215-9.148,24.889-10.243,38.09c3.208-6.722,7.751-14.968,12.654-21.234c2.136-2.731,6.169-6.63,8.777-8.914
				c4.703-4.12,7.878-6.772,13.661-8.545C45.345,303.238,50.299,306.696,47.893,311.729z"/>
			<g>
				<path style="fill:#558283;" d="M7.494,137.237c4.286-6.098,9.198-12.135,15.943-15.307c6.745-3.171,15.757-2.644,20.563,3.054
					c4.252,5.042,4.082,12.682,1.409,18.712c-2.674,6.029-7.413,10.852-11.928,15.66c-23.186,24.687-49.541,58.522-65.082,88.614
					c2.929-5.671,0.855-25.239,6.296-39.277c2.508-6.471,4.625-11.244,6.748-17.844C-12.438,171.824-4.017,153.615,7.494,137.237z"
					/>
				
					<path style="fill:none;stroke:#E8E8E8;stroke-width:0.5489;stroke-linecap:round;stroke-linejoin:round;stroke-miterlimit:10;" d="
					M34.212,131.167C8.043,160.165-19.49,202.436-31.332,245.421"/>
			</g>
			<g>
				<g>
					<path style="fill:none;" d="M-19.862,285.711c0.089-0.023,0.179-0.046,0.268-0.07c0.015,0,0.031,0.001,0.046,0.001
						C-19.654,285.663-19.758,285.688-19.862,285.711z"/>
					<path style="fill:#E37F4F;" d="M-3.199,220.036c-22.417,29.589-39.48,63.222-50.143,98.779
						c17.83-2.815,39.965-10.593,48.311-17.12c1.909-1.493,4.157-4.328,5.193-6.519c1.036-2.191,1.056-5.001-0.488-6.869
						c-1.106-1.338-2.819-2.01-4.497-2.454c-1.044-0.276-2.106-0.478-3.177-0.618c1.39-0.147,2.777-0.324,4.156-0.56
						c6.923-1.187,13.712-3.616,19.407-7.727c2.263-1.634,4.383-3.574,5.698-6.036c1.316-2.462,1.732-5.518,0.585-8.063
						c-0.402-0.892-0.988-1.682-1.691-2.357c-0.57-0.979-1.626-1.566-2.828-1.826c-0.351-0.144-0.708-0.274-1.072-0.374
						c-0.319-0.087-0.642-0.156-0.966-0.211c3.049-1.116,6.07-2.369,8.729-4.224c2.873-2.004,5.322-4.786,6.331-8.141
						c0.593-1.974,0.629-4.246-0.515-5.961c-1.211-1.815-3.505-2.639-5.685-2.724c-0.947-0.037-1.835,0.041-2.672,0.21
						c6.057-4.012,10.259-8.074,14.103-15.448c1.254-2.405,2.346-8.046,1.662-10.67c-1.518-5.825-7.602-6.349-12.451-5.295
						c-10.544,2.293-19.572,10.427-23.133,20.586c0.224-2.122-0.316-4.755-2.016-5.641C-1.099,220.385-2.081,220.114-3.199,220.036z
						 M-19.594,285.642c0.015,0,0.031,0.001,0.046,0.001c-0.105,0.021-0.209,0.046-0.314,0.069
						C-19.773,285.688-19.684,285.665-19.594,285.642z"/>
					<path style="fill:#C6633C;" d="M-49.884,265.816c1.827-3.169,4.605-6.201,8.07-7.373c3.465-1.172,8.166,1.03,8.111,4.688
						c1.693-8.062,3.999-16.105,8.183-23.2c4.185-7.095,9.327-14.378,16.472-18.479c2.063-1.184,4.123-1.536,5.85-1.415
						c-22.417,29.589-39.48,63.222-50.143,98.779c-0.958,0.151-1.908,0.292-2.838,0.414c-1.723,0.225-3.29-0.917-3.203-2.652
						C-58.886,306.707-56.475,277.25-49.884,265.816z"/>
				</g>
				<g>
					
						<path style="fill:none;stroke:#E8C79A;stroke-width:0.6562;stroke-linecap:round;stroke-linejoin:round;stroke-miterlimit:10;" d="
						M25.794,212.749C-6.22,244.562-31.955,282.021-57.49,319.236"/>
					
						<path style="fill:none;stroke:#E8C79A;stroke-width:0.6562;stroke-linecap:round;stroke-linejoin:round;stroke-miterlimit:10;" d="
						M-6.383,227.972c-5.297,8.652-7.878,18.939-7.295,29.067"/>
					
						<path style="fill:none;stroke:#E8C79A;stroke-width:0.6562;stroke-linecap:round;stroke-linejoin:round;stroke-miterlimit:10;" d="
						M-6.267,248.841c-0.073-0.384,0.462-0.556,0.853-0.568c8.591-0.261,17.125-2.269,24.931-5.867"/>
					
						<path style="fill:none;stroke:#E8C79A;stroke-width:0.6562;stroke-linecap:round;stroke-linejoin:round;stroke-miterlimit:10;" d="
						M-25.188,273.323c11.765-0.451,23.435-3.248,34.126-8.18"/>
					
						<path style="fill:none;stroke:#E8C79A;stroke-width:0.6562;stroke-linecap:round;stroke-linejoin:round;stroke-miterlimit:10;" d="
						M-40.967,265.579c-1.992,5.786-3.992,11.6-5.066,17.625c-1.074,6.024-1.191,12.318,0.555,18.183"/>
					
						<path style="fill:none;stroke:#E8C79A;stroke-width:0.6562;stroke-linecap:round;stroke-linejoin:round;stroke-miterlimit:10;" d="
						M-42.783,297.813c12.056-0.104,24.094-2.009,35.593-5.631"/>
				</g>
				<g>
					<path style="fill:#E0A95D;" d="M11.025,253.821c0.993,0.234,2.043-0.165,2.856-0.781c0.678-0.513,1.276-1.291,1.167-2.135
						c-0.243-1.889-2.99-2.207-4.256-1.229C9.345,250.795,8.716,253.278,11.025,253.821z"/>
					<path style="fill:#E0A95D;" d="M17.066,234.087c0.589,0.139,1.211-0.098,1.693-0.463c0.402-0.304,0.756-0.766,0.692-1.265
						c-0.144-1.12-1.772-1.309-2.523-0.729C16.07,232.293,15.697,233.764,17.066,234.087z"/>
					<path style="fill:#E0A95D;" d="M26.368,223.364c0.218,0.878,0.959,1.545,1.774,1.937c0.68,0.327,1.536,0.483,2.158,0.055
						c1.392-0.957,0.53-3.255-0.756-3.857C28.076,220.811,25.861,221.321,26.368,223.364z"/>
					<path style="fill:#E0A95D;" d="M7.377,221.807c0.199,0.799,0.873,1.407,1.615,1.764c0.619,0.298,1.399,0.44,1.965,0.051
						c1.268-0.872,0.482-2.964-0.688-3.513C8.932,219.482,6.915,219.947,7.377,221.807z"/>
					<path style="fill:#E0A95D;" d="M5.922,274.278c0.148,0.597,0.652,1.05,1.206,1.317c0.462,0.222,1.044,0.328,1.467,0.038
						c0.946-0.651,0.36-2.212-0.514-2.622C7.082,272.543,5.577,272.89,5.922,274.278z"/>
					<path style="fill:#E0A95D;" d="M0.36,260.778c0.514,0.337,1.192,0.327,1.779,0.146c0.49-0.152,0.989-0.469,1.101-0.97
						c0.251-1.121-1.24-1.867-2.16-1.573C0.031,258.717-0.837,259.995,0.36,260.778z"/>
					<path style="fill:#E0A95D;" d="M14.341,265.959c0.072,0.611,0.514,1.124,1.03,1.458c0.43,0.279,0.994,0.458,1.45,0.223
						c1.021-0.526,0.636-2.149-0.179-2.666C15.711,264.384,14.174,264.538,14.341,265.959z"/>
				</g>
			</g>
			<g>
				<g>
					<path style="fill:#E0A23C;" d="M43.852,184.735c0.134-0.077,0.274-0.144,0.406-0.226c1.733-1.074,3.354-2.87,3.07-4.889
						c-0.347-2.475-3.453-3.701-5.877-3.096c2.213-0.268,4.161-2.046,4.629-4.225c0.468-2.179-0.578-4.6-2.486-5.753
						c-1.346-0.813-3.046-0.94-4.535-0.451c-0.302,2.164-0.37,4.356-0.142,6.544C39.373,177.012,41.118,181.31,43.852,184.735z"/>
					<path style="fill:#E0A23C;" d="M38.917,172.638c-0.228-2.188-0.16-4.38,0.142-6.544c-0.622,0.204-1.21,0.505-1.714,0.925
						c1.199-2.57,1.229-5.642,0.333-8.332c-0.518-1.554-1.517-3.104-3.084-3.585c-2.015-0.618-4.156,0.8-5.281,2.582
						c-1.125,1.783-1.567,3.902-2.425,5.828c0.314-2.339-1.976-4.65-4.319-4.357c-1.625,0.203-2.983,1.446-3.699,2.919
						c-0.716,1.473-0.879,3.151-0.892,4.789c-0.036,4.666,0.492,9.026,3.022,13.602c0.985,1.781,2.459,3.383,4.37,4.087
						c3.28,1.208,5.335,2.127,8.826,2.295c3.337,0.16,6.763-0.452,9.655-2.112C41.118,181.31,39.373,177.012,38.917,172.638z"/>
				</g>
				<g>
					<path style="fill:#25405C;" d="M23.663,184.337c2.265,1.595,4.911,2.645,7.654,3.036c0.422,0.06,0.868,0.102,1.261-0.062
						c0.393-0.164,0.704-0.603,0.582-1.011c-0.097-0.321-0.413-0.517-0.709-0.674c-1.324-0.697-2.756-1.189-4.229-1.452
						c2.492,0.754,5.224,0.695,7.681-0.166c0.506-0.177,1.076-0.481,1.134-1.015c0.081-0.736-0.833-1.136-1.566-1.248
						c-2.454-0.374-4.99-0.205-7.372,0.492c2.079-1.43,3.474-3.197,4.712-5.396c0.326-0.58,0.623-1.276,0.367-1.89
						c-0.275-0.657-1.111-0.93-1.807-0.781c-0.696,0.149-1.276,0.618-1.803,1.098c-1.782,1.622-3.293,3.541-4.452,5.653
						c0.961-2.148,1.393-4.532,1.245-6.881c-0.038-0.608-0.121-1.232-0.424-1.76c-0.303-0.528-0.875-0.941-1.482-0.894
						c-0.984,0.076-1.493,1.196-1.724,2.156c-0.492,2.048-0.656,4.176-0.485,6.275c-0.22-2.01-0.87-3.971-1.895-5.715
						c-0.32-0.545-0.887-1.143-1.475-0.912c-0.764,2.742,0.599,5.579,1.923,8.099C21.5,182.63,22.426,183.467,23.663,184.337z"/>
					<path style="fill:none;stroke:#25405C;stroke-width:1.2684;stroke-miterlimit:10;" d="M24.228,184.135
						c-1.091,3.114-2.985,5.876-4.939,8.534c-6.206,8.443-13.292,16.314-21.621,22.672c-8.329,6.358-17.95,11.176-28.236,13.172
						c-5.667,1.1-11.462,1.337-17.23,1.571"/>
					<path style="fill:#25405C;" d="M23.367,185.563c-0.174-0.124-0.337-0.27-0.459-0.446c-0.171-0.247-0.255-0.543-0.336-0.833
						c-0.087-0.312-0.162-0.684,0.052-0.927c0.12-0.136,0.305-0.195,0.483-0.23c1.282-0.251,2.688,0.542,3.136,1.769
						C26.881,186.643,24.123,186.102,23.367,185.563z"/>
				</g>
			</g>
		</g>
		<g style="clip-path:url(#SVGID_00000180350426807840421240000001519922474753515650_);">
			<path style="fill:#25405C;" d="M458.491,213.037c7.122,15.529,27.081,21.115,36.198,35.564
				c-6.423-5.452-13.509-10.123-21.052-13.876c-3.144-1.564-6.476-2.995-9.986-3.058c-3.511-0.063-7.257,1.534-8.814,4.681
				c-1.762,3.56-0.196,8.067,2.701,10.784c2.896,2.717,6.826,4.008,10.671,5.003c6.977,1.806,14.135,2.902,21.03,5.003
				c6.894,2.101,13.656,5.328,18.519,10.648c-9.128-4.501-19.058-7.368-29.18-8.426c-2.898-0.303-5.931-0.44-8.622,0.677
				c-2.691,1.117-4.929,3.825-4.602,6.721c0.202,1.787,1.327,3.359,2.694,4.528c5.561,4.754,13.835,3.349,21.15,3.191
				c9.94-0.214,19.925,2.479,28.41,7.662c-5.639-0.775-11.278-1.549-16.918-2.324c-4.598-0.632-9.392-1.247-13.789,0.238
				c-2.869,0.969-5.734,3.494-5.248,6.483c0.322,1.978,2.03,3.447,3.823,4.341c5.14,2.563,11.223,1.728,16.955,1.365
				c10.706-0.679,19.43-0.822,31.824,3.544c1.387,0.034,3.199-2.162,2.213-4.053c-0.986-1.892-3.059-4.566-4.132-6.41
				c-3.484-5.986-4.049-16.667-1.698-24.256c2.35-7.589,4.676-12.032,7.931-19.278c0.838-1.864,1.614-3.86,1.405-5.893
				c-0.209-2.033-1.723-4.074-3.764-4.19c-1.349-0.077-2.61,0.673-3.635,1.554c-3.531,3.034-5.194,7.65-6.714,12.051
				c-1.701,4.924-3.402,9.848-5.103,14.772c-0.392,1.134-1.11,2.496-2.305,2.401c-0.572-13.773,7.763-26.693,7.502-40.476
				c-0.04-2.143-0.397-4.496-2.011-5.906c-2.83-2.471-7.596-0.172-9.118,3.263c-1.522,3.435-0.937,7.376-0.802,11.13
				c0.272,7.544-1.439,15.151-4.915,21.852c-1.661,0.278-2.297-2.092-2.194-3.773c0.451-7.357,1.48-14.708,1.112-22.07
				c-0.368-7.362-2.279-14.912-7.014-20.561c-1.289-1.537-2.85-2.959-4.782-3.498c-1.932-0.539-4.286,0.039-5.313,1.762
				c-0.488,0.818-0.635,1.791-0.715,2.74c-1.112,13.199,8.749,25.032,9.632,38.249c-3.1-6.772-7.511-15.09-12.312-21.433
				c-2.093-2.764-6.062-6.727-8.634-9.053c-4.637-4.195-7.769-6.897-13.522-8.763C461.174,204.587,456.165,207.965,458.491,213.037z
				"/>
			<g>
				<path style="fill:#558283;" d="M480.808,314.162c-4.599-5.866-9.819-11.638-16.721-14.452
					c-6.902-2.814-15.874-1.816-20.375,4.124c-3.983,5.257-3.414,12.878-0.429,18.76c2.985,5.882,7.97,10.45,12.731,15.015
					c24.445,23.441,52.532,55.853,69.624,85.091c-3.221-5.51-2.173-25.159-8.341-38.894c-2.843-6.331-5.206-10.987-7.671-17.467
					C502.521,347.66,493.16,329.916,480.808,314.162z"/>
				
					<path style="fill:none;stroke:#E8E8E8;stroke-width:0.5489;stroke-linecap:round;stroke-linejoin:round;stroke-miterlimit:10;" d="
					M453.809,309.497c27.649,27.59,57.354,68.364,71.427,110.672"/>
			</g>
			<g>
				<g>
					<path style="fill:none;" d="M519.592,204.425c-0.089-0.023-0.179-0.046-0.268-0.07c-0.015,0-0.031,0.001-0.046,0.001
						C519.383,204.377,519.487,204.402,519.592,204.425z"/>
					<path style="fill:#E37F4F;" d="M500.088,139.485c-1.7,0.886-2.239,3.519-2.015,5.641
						c-3.562-10.159-12.589-18.294-23.133-20.586c-4.85-1.055-10.933-0.53-12.452,5.295c-0.684,2.625,0.408,8.265,1.662,10.67
						c3.844,7.374,8.045,11.436,14.103,15.448c-0.838-0.168-1.725-0.246-2.672-0.21c-2.181,0.085-4.474,0.909-5.685,2.724
						c-1.144,1.714-1.108,3.987-0.515,5.96c1.009,3.355,3.458,6.137,6.331,8.142c2.659,1.855,5.68,3.108,8.729,4.224
						c-0.325,0.056-0.647,0.124-0.966,0.211c-0.365,0.1-0.721,0.229-1.072,0.373c-1.202,0.26-2.257,0.846-2.828,1.826
						c-0.703,0.676-1.289,1.465-1.691,2.357c-1.147,2.545-0.731,5.601,0.585,8.063c1.316,2.462,3.435,4.403,5.698,6.036
						c5.695,4.111,12.484,6.54,19.407,7.727c1.38,0.236,2.766,0.413,4.156,0.56c-1.07,0.14-2.133,0.342-3.177,0.618
						c-1.679,0.444-3.391,1.116-4.497,2.454c-1.544,1.868-1.524,4.678-0.488,6.869c1.036,2.191,3.284,5.026,5.193,6.519
						c8.346,6.527,30.481,14.305,48.311,17.12c-10.663-35.557-27.726-69.19-50.143-98.779
						C501.81,138.827,500.829,139.099,500.088,139.485z M519.592,204.425c-0.105-0.023-0.209-0.048-0.314-0.069
						c0.015,0,0.031,0,0.046-0.001C519.413,204.378,519.503,204.402,519.592,204.425z"/>
					<path style="fill:#C6633C;" d="M549.614,184.529c-1.827-3.169-4.605-6.201-8.07-7.373s-8.166,1.03-8.111,4.688
						c-1.693-8.062-3.999-16.105-8.183-23.2c-4.185-7.095-9.327-14.378-16.472-18.479c-2.063-1.184-4.123-1.536-5.85-1.415
						c22.417,29.589,39.48,63.222,50.143,98.779c0.958,0.151,1.908,0.292,2.838,0.414c1.723,0.225,3.29-0.917,3.203-2.652
						C558.616,225.421,556.204,195.963,549.614,184.529z"/>
				</g>
				<g>
					
						<path style="fill:none;stroke:#E8C79A;stroke-width:0.6562;stroke-linecap:round;stroke-linejoin:round;stroke-miterlimit:10;" d="
						M473.936,131.463c32.014,31.813,57.749,69.271,83.283,106.486"/>
					
						<path style="fill:none;stroke:#E8C79A;stroke-width:0.6562;stroke-linecap:round;stroke-linejoin:round;stroke-miterlimit:10;" d="
						M506.112,146.685c5.296,8.652,7.879,18.939,7.296,29.067"/>
					
						<path style="fill:none;stroke:#E8C79A;stroke-width:0.6562;stroke-linecap:round;stroke-linejoin:round;stroke-miterlimit:10;" d="
						M505.997,167.554c0.073-0.384-0.462-0.556-0.853-0.568c-8.591-0.261-17.125-2.269-24.931-5.866"/>
					
						<path style="fill:none;stroke:#E8C79A;stroke-width:0.6562;stroke-linecap:round;stroke-linejoin:round;stroke-miterlimit:10;" d="
						M524.918,192.036c-11.765-0.451-23.435-3.248-34.126-8.18"/>
					
						<path style="fill:none;stroke:#E8C79A;stroke-width:0.6562;stroke-linecap:round;stroke-linejoin:round;stroke-miterlimit:10;" d="
						M540.696,184.292c1.992,5.786,3.992,11.6,5.066,17.625c1.074,6.024,1.191,12.318-0.555,18.183"/>
					
						<path style="fill:none;stroke:#E8C79A;stroke-width:0.6562;stroke-linecap:round;stroke-linejoin:round;stroke-miterlimit:10;" d="
						M542.512,216.526c-12.056-0.104-24.094-2.009-35.593-5.631"/>
				</g>
				<g>
					<path style="fill:#E0A95D;" d="M488.704,172.535c-0.992,0.234-2.043-0.165-2.856-0.781c-0.678-0.513-1.276-1.291-1.167-2.135
						c0.243-1.889,2.99-2.207,4.256-1.229C490.384,169.508,491.014,171.991,488.704,172.535z"/>
					<path style="fill:#E0A95D;" d="M482.663,152.8c-0.589,0.139-1.211-0.098-1.693-0.463c-0.402-0.304-0.756-0.766-0.692-1.266
						c0.144-1.12,1.772-1.309,2.523-0.728C483.659,151.006,484.032,152.478,482.663,152.8z"/>
					<path style="fill:#E0A95D;" d="M473.361,142.078c-0.218,0.878-0.959,1.545-1.774,1.937c-0.68,0.327-1.536,0.483-2.158,0.055
						c-1.392-0.957-0.53-3.255,0.756-3.857C471.654,139.525,473.868,140.034,473.361,142.078z"/>
					<path style="fill:#E0A95D;" d="M492.352,140.52c-0.199,0.8-0.873,1.407-1.615,1.764c-0.619,0.298-1.399,0.44-1.965,0.051
						c-1.268-0.872-0.482-2.964,0.688-3.513C490.798,138.195,492.814,138.66,492.352,140.52z"/>
					<path style="fill:#E0A95D;" d="M493.808,192.992c-0.148,0.597-0.652,1.05-1.206,1.317c-0.462,0.222-1.044,0.328-1.467,0.038
						c-0.946-0.651-0.36-2.212,0.514-2.622C492.648,191.257,494.153,191.603,493.808,192.992z"/>
					<path style="fill:#E0A95D;" d="M499.37,179.492c-0.515,0.337-1.192,0.327-1.78,0.146c-0.49-0.151-0.989-0.469-1.101-0.97
						c-0.251-1.12,1.24-1.867,2.16-1.573C499.699,177.43,500.567,178.708,499.37,179.492z"/>
					<path style="fill:#E0A95D;" d="M485.389,184.673c-0.072,0.611-0.514,1.124-1.03,1.458c-0.43,0.279-0.994,0.457-1.45,0.222
						c-1.021-0.526-0.636-2.149,0.179-2.666C484.019,183.098,485.556,183.252,485.389,184.673z"/>
				</g>
			</g>
			<g>
				<g>
					<path style="fill:#E0A23C;" d="M457.436,294.561c-0.134-0.077-0.274-0.144-0.405-0.226c-1.733-1.073-3.354-2.87-3.07-4.889
						c0.347-2.475,3.453-3.701,5.877-3.096c-2.213-0.268-4.161-2.046-4.629-4.225c-0.468-2.179,0.578-4.6,2.486-5.753
						c1.346-0.813,3.046-0.94,4.535-0.451c0.302,2.164,0.37,4.356,0.142,6.544C461.915,286.838,460.17,291.136,457.436,294.561z"/>
					<path style="fill:#E0A23C;" d="M462.371,282.464c0.228-2.188,0.161-4.379-0.142-6.544c0.622,0.204,1.21,0.505,1.714,0.925
						c-1.199-2.57-1.229-5.642-0.333-8.332c0.518-1.554,1.517-3.104,3.084-3.584c2.015-0.618,4.156,0.8,5.281,2.582
						c1.125,1.783,1.567,3.902,2.425,5.828c-0.314-2.339,1.976-4.65,4.319-4.357c1.625,0.203,2.983,1.446,3.699,2.919
						c0.716,1.473,0.879,3.151,0.892,4.789c0.036,4.666-0.492,9.026-3.023,13.602c-0.985,1.781-2.459,3.384-4.369,4.087
						c-3.28,1.208-5.335,2.127-8.827,2.295c-3.337,0.16-6.763-0.452-9.655-2.112C460.17,291.136,461.915,286.838,462.371,282.464z"
						/>
				</g>
				<g>
					<path style="fill:#25405C;" d="M477.625,294.163c-2.265,1.595-4.911,2.645-7.654,3.036c-0.422,0.06-0.868,0.102-1.261-0.062
						c-0.393-0.164-0.704-0.603-0.581-1.011c0.096-0.321,0.413-0.517,0.709-0.673c1.324-0.697,2.756-1.189,4.229-1.452
						c-2.492,0.754-5.224,0.695-7.681-0.166c-0.506-0.177-1.076-0.481-1.134-1.015c-0.081-0.736,0.833-1.136,1.565-1.248
						c2.454-0.374,4.99-0.205,7.373,0.492c-2.079-1.43-3.474-3.197-4.712-5.396c-0.326-0.58-0.623-1.276-0.366-1.89
						c0.275-0.657,1.111-0.93,1.807-0.781c0.696,0.149,1.276,0.618,1.803,1.098c1.782,1.622,3.293,3.541,4.452,5.653
						c-0.961-2.148-1.393-4.532-1.245-6.881c0.038-0.608,0.12-1.232,0.424-1.759c0.303-0.528,0.875-0.941,1.482-0.894
						c0.984,0.076,1.494,1.196,1.724,2.156c0.492,2.049,0.656,4.176,0.485,6.275c0.22-2.01,0.87-3.972,1.895-5.715
						c0.32-0.545,0.887-1.143,1.475-0.912c0.764,2.742-0.599,5.579-1.923,8.099C479.787,292.455,478.861,293.292,477.625,294.163z"
						/>
					<path style="fill:none;stroke:#25405C;stroke-width:1.2684;stroke-miterlimit:10;" d="M477.059,293.961
						c1.091,3.114,2.985,5.876,4.939,8.534c6.206,8.443,13.292,16.314,21.621,22.672c8.329,6.358,17.95,11.177,28.236,13.172
						c5.668,1.099,11.462,1.337,17.23,1.571"/>
					<path style="fill:#25405C;" d="M477.921,295.389c0.175-0.124,0.337-0.27,0.459-0.446c0.171-0.248,0.255-0.543,0.336-0.833
						c0.087-0.311,0.162-0.684-0.052-0.927c-0.12-0.136-0.305-0.195-0.483-0.23c-1.282-0.251-2.688,0.542-3.136,1.768
						C474.407,296.469,477.165,295.928,477.921,295.389z"/>
				</g>
			</g>
		</g>
	</g>
	<rect y="411.51" style="fill:#BBCECF;" width="500" height="88.49"/>
	<rect y="402.053" style="fill:#FFFFFF;" width="500" height="9.458"/>
	<g>
		<g>
			<g>
				<g>
					<path style="opacity:0.25;fill:#1E3239;" d="M181.652,444.445c0,7.687-37.106,13.919-82.879,13.919
						c-45.773,0-82.879-6.232-82.879-13.919c0-7.687,37.106-13.919,82.879-13.919C144.546,430.526,181.652,436.758,181.652,444.445z
						"/>
					<g>
						<g>
							<rect x="31.2" y="402.686" style="fill:#E0A23C;" width="64.217" height="48.452"/>
							<rect x="54.285" y="402.686" style="fill:#EFDE9D;" width="18.048" height="22.206"/>
						</g>
						<polygon style="fill:#C68424;" points="95.417,402.686 102.13,395.745 102.13,439.006 95.417,451.138 						"/>
						<polygon style="fill:#DB9837;" points="31.2,402.686 39.806,395.745 102.13,395.745 95.417,402.686 						"/>
						<polygon style="fill:#EFDE9D;" points="54.285,402.686 62.448,395.745 78.904,395.745 72.333,402.686 						"/>
					</g>
					<g>
						<g>
							<rect x="102.13" y="402.686" style="fill:#E0A23C;" width="64.217" height="48.452"/>
							<rect x="125.214" y="402.686" style="fill:#EFDE9D;" width="18.048" height="22.206"/>
						</g>
						<polygon style="fill:#C68424;" points="166.347,402.686 173.059,395.745 173.059,439.006 166.347,451.138 						"/>
						<polygon style="fill:#DB9837;" points="102.13,402.686 110.735,395.745 173.059,395.745 166.347,402.686 						"/>
						<polygon style="fill:#EFDE9D;" points="125.214,402.686 133.377,395.745 149.833,395.745 143.262,402.686 						"/>
					</g>
					<g>
						<g>
							<rect x="48.097" y="355.686" style="fill:#E0A23C;" width="64.217" height="48.452"/>
							<rect x="71.181" y="355.686" style="fill:#EFDE9D;" width="18.048" height="22.206"/>
						</g>
						<polygon style="fill:#C68424;" points="112.314,355.686 119.026,348.745 119.026,392.006 112.314,404.138 						"/>
						<polygon style="fill:#DB9837;" points="48.097,355.686 56.702,348.745 119.026,348.745 112.314,355.686 						"/>
						<polygon style="fill:#EFDE9D;" points="71.181,355.686 79.344,348.745 95.801,348.745 89.23,355.686 						"/>
					</g>
				</g>
				<g>
					<path style="opacity:0.25;fill:#1E3239;" d="M494.631,459.551c0,5.615-27.102,10.167-60.535,10.167
						c-33.432,0-60.534-4.552-60.534-10.167c0-5.615,27.102-10.166,60.534-10.166C467.529,449.384,494.631,453.936,494.631,459.551z
						"/>
					<g>
						<path style="fill:#C68424;" d="M480.739,460.859c0,3.405-22.498,6.16-50.237,6.16c-27.747,0-50.237-2.755-50.237-6.16
							c0-0.191,0.069-0.383,0.214-0.566h-0.428v-8.203h100.467v8.196C480.662,460.477,480.739,460.668,480.739,460.859z"/>
						<path style="fill:#EAAF59;" d="M399.278,452.09v13.591c-11.586-1.125-19.016-2.862-19.016-4.821
							c0-0.191,0.069-0.383,0.214-0.566h-0.429v-8.203H399.278z"/>
						<path style="fill:#EAAF59;" d="M480.737,460.859c0,2.449-11.616,4.561-28.451,5.556V452.09h28.229v8.196
							C480.66,460.477,480.737,460.668,480.737,460.859z"/>
						<path style="fill:#EAAF59;" d="M428.234,452.09v14.922c-6.772-0.038-13.2-0.237-19.016-0.566V452.09H428.234z"/>
						<path style="fill:#EAAF59;" d="M442.062,452.09v14.761c-3.069,0.092-6.252,0.145-9.512,0.161V452.09H442.062z"/>
						<ellipse style="fill:#E0A23C;" cx="430.068" cy="452.089" rx="50.235" ry="6.158"/>
						<path style="fill:#C68424;" d="M470.693,452.089c0,2.278-18.189,4.124-40.626,4.124c-22.437,0-40.626-1.847-40.626-4.124
							s18.189-4.124,40.626-4.124C452.505,447.965,470.693,449.811,470.693,452.089z"/>
					</g>
					<g>
						<path style="fill:#C68424;" d="M486.492,446.863c0,3.405-22.498,6.16-50.237,6.16c-27.747,0-50.237-2.755-50.237-6.16
							c0-0.191,0.069-0.383,0.214-0.566h-0.428v-8.203H486.27v8.196C486.415,446.48,486.492,446.672,486.492,446.863z"/>
						<path style="fill:#EAAF59;" d="M405.031,438.093v13.591c-11.586-1.125-19.016-2.862-19.016-4.821
							c0-0.191,0.069-0.383,0.214-0.566h-0.428v-8.203H405.031z"/>
						<path style="fill:#EAAF59;" d="M486.49,446.863c0,2.449-11.616,4.561-28.451,5.556v-14.325h28.229v8.196
							C486.413,446.48,486.49,446.672,486.49,446.863z"/>
						<path style="fill:#EAAF59;" d="M433.988,438.093v14.922c-6.772-0.038-13.2-0.237-19.016-0.566v-14.356H433.988z"/>
						<path style="fill:#EAAF59;" d="M447.815,438.093v14.761c-3.068,0.092-6.252,0.145-9.512,0.161v-14.922H447.815z"/>
						<ellipse style="fill:#E0A23C;" cx="435.821" cy="438.092" rx="50.235" ry="6.158"/>
						<path style="fill:#C68424;" d="M476.447,438.092c0,2.278-18.189,4.124-40.626,4.124c-22.437,0-40.626-1.847-40.626-4.124
							s18.189-4.124,40.626-4.124C458.258,433.968,476.447,435.815,476.447,438.092z"/>
					</g>
					<g>
						<path style="fill:#C68424;" d="M473.151,438.257c0,3.405-22.498,6.16-50.237,6.16c-27.747,0-50.237-2.755-50.237-6.16
							c0-0.191,0.069-0.383,0.214-0.566h-0.429v-8.203h100.467v8.195C473.075,437.875,473.151,438.066,473.151,438.257z"/>
						<path style="fill:#EAAF59;" d="M391.691,429.488v13.59c-11.586-1.125-19.016-2.862-19.016-4.821
							c0-0.191,0.069-0.383,0.214-0.566h-0.428v-8.203H391.691z"/>
						<path style="fill:#EAAF59;" d="M473.149,438.257c0,2.449-11.616,4.561-28.451,5.556v-14.325h28.229v8.195
							C473.073,437.875,473.149,438.066,473.149,438.257z"/>
						<path style="fill:#EAAF59;" d="M420.647,429.488v14.922c-6.772-0.038-13.2-0.237-19.016-0.566v-14.356H420.647z"/>
						<path style="fill:#EAAF59;" d="M434.475,429.488v14.761c-3.069,0.092-6.252,0.145-9.512,0.161v-14.922H434.475z"/>
						<path style="fill:#E0A23C;" d="M472.715,429.487c0,3.401-22.491,6.158-50.235,6.158c-27.744,0-50.235-2.757-50.235-6.158
							c0-3.401,22.491-6.158,50.235-6.158C450.224,423.329,472.715,426.086,472.715,429.487z"/>
						<path style="fill:#C68424;" d="M463.106,429.487c0,2.278-18.189,4.124-40.626,4.124s-40.626-1.846-40.626-4.124
							c0-2.278,18.189-4.124,40.626-4.124S463.106,427.209,463.106,429.487z"/>
					</g>
					<g>
						<path style="fill:#C68424;" d="M488.543,429.747c0,3.405-22.498,6.16-50.237,6.16c-27.747,0-50.237-2.755-50.237-6.16
							c0-0.191,0.069-0.383,0.214-0.566h-0.429v-8.203h100.467v8.196C488.466,429.364,488.543,429.555,488.543,429.747z"/>
						<path style="fill:#EAAF59;" d="M407.083,420.977v13.59c-11.586-1.125-19.016-2.862-19.016-4.821
							c0-0.191,0.069-0.383,0.214-0.566h-0.428v-8.203H407.083z"/>
						<path style="fill:#EAAF59;" d="M488.541,429.747c0,2.449-11.616,4.561-28.451,5.556v-14.325h28.229v8.196
							C488.465,429.364,488.541,429.555,488.541,429.747z"/>
						<path style="fill:#EAAF59;" d="M436.039,420.977v14.922c-6.772-0.038-13.2-0.237-19.016-0.566v-14.356H436.039z"/>
						<path style="fill:#EDB769;" d="M449.867,420.977v14.761c-3.069,0.092-6.252,0.145-9.512,0.161v-14.922H449.867z"/>
						<ellipse style="fill:#E0A23C;" cx="437.872" cy="420.976" rx="50.235" ry="6.158"/>
						<path style="fill:#C68424;" d="M478.498,420.976c0,2.278-18.189,4.124-40.626,4.124s-40.626-1.847-40.626-4.124
							s18.189-4.124,40.626-4.124S478.498,418.699,478.498,420.976z"/>
					</g>
					<g>
						<g>
							<circle style="fill:#C68424;" cx="443.05" cy="385.016" r="37.654"/>
							<path style="fill:#EAAF59;" d="M467.52,356.398h-48.934v-0.009c5.323-4.546,11.914-7.632,19.172-8.655h10.59
								C455.606,348.757,462.207,351.852,467.52,356.398z"/>
							<path style="fill:#EAAF59;" d="M480.649,382.992H407.43v-10.207c0.977-2.867,2.301-5.578,3.907-8.08h63.423
								C478.175,370.028,480.293,376.282,480.649,382.992z"/>
							<path style="fill:#EAAF59;" d="M478.941,396.422c-0.749,2.365-1.725,4.62-2.912,6.756h-65.961
								c-0.593-1.05-1.123-2.136-1.607-3.25v-3.506H478.941z"/>
							<path style="fill:#EAAF59;" d="M468.525,412.745c-6.701,6.162-15.657,9.924-25.471,9.924c-9.823,0-18.77-3.761-25.48-9.924
								H468.525z"/>
						</g>
						<circle style="fill:#E0A23C;" cx="435.718" cy="385.387" r="37.654"/>
						<circle style="fill:#C68424;" cx="435.718" cy="385.387" r="29.16"/>
						
							<text transform="matrix(1 0 0 1 421.1261 399.3981)" style="fill:#E0A23C; font-family:'Montserrat-Black'; font-size:40.4514px; letter-spacing:4;">$</text>
					</g>
				</g>
			</g>
			<g>
				<g>
					<ellipse style="opacity:0.25;fill:#1E3239;" cx="177.853" cy="462.013" rx="48.544" ry="8.153"/>
					<g>
						<path style="fill:#1C3247;" d="M170.477,433.899c0,0-5.836-1.256-7.166,3.768c-1.33,5.024,1.81,10.232,1.588,14.886
							c-0.222,4.654-3.214,14.517,6.316,16.401c9.53,1.884,12.744-1.662,11.082-6.871c-1.662-5.208-5.984-10.084-5.43-17.066
							C177.421,438.036,176.941,431.754,170.477,433.899z"/>
						<path style="fill:#1C3247;" d="M189.976,434.497c0,0-7.395,6.405-3.818,13.227l2.365,2.097l5.047,0.006
							c0,0,2.847,1.292,3.875,4.58c1.028,3.288,2.725,7.351,6.264,7.542c3.538,0.191,13.862,0.822,13.862-2.828
							c0-2.451-7.82-5.557-9.528-7.384c-1.709-1.828-7.422-7.727-8.358-15.56C198.747,428.344,189.976,434.497,189.976,434.497z"/>
						<polygon style="fill:#1C3247;" points="186.157,447.725 186.839,458.928 188.304,459.145 190.115,449.376 						"/>
						<path style="fill:#FBC8C7;" d="M150.544,316.139c0,0,0.486,26.876,2.432,38.429c1.946,11.553-0.324,33.565,4.54,53.347
							c4.865,19.782,7.297,22.215,7.459,27.565h10.377c0,0,0.486-47.347,0-62.914c-0.486-15.566,4.216-33.727,4.216-33.727
							s5.351,17.512,4.865,29.511c-0.486,11.999-3.729,16.377,2.108,34.375c5.837,17.999,3.921,31.628,3.921,31.628h11.027
							c0,0,3.78-47.68,5.969-69.57c2.189-21.89,0-51.807,0-51.807L150.544,316.139z"/>
						<path style="fill:#FBC8C7;" d="M164.826,433.013l10.393-0.813c0,0,0.116,8.942,0.755,15.154
							c0.639,6.213,2.206,13.993-1.51,14.516c-3.716,0.523-8.071-9-8.303-14.4C165.93,442.07,164.826,433.013,164.826,433.013z"/>
						<path style="fill:#FBC8C7;" d="M190.874,431.692l10.871-0.299c0,0-1.02,9.262,0.558,12.1
							c1.578,2.838,7.836,10.184,6.351,11.132c-1.485,0.948-8.025-3.33-12.997-8.331
							C190.684,441.293,189.969,434.513,190.874,431.692z"/>
					</g>
					<path style="fill:#25405C;" d="M155.822,262.193c0,0-18.453,45.056-22.078,111.251h88.219c0,0-8.267-95.413-10.773-106.322
						C208.683,256.213,155.822,262.193,155.822,262.193z"/>
					<g>
						<path style="fill:#122433;" d="M163.79,267.122c-1.964,8.803-3.839,17.615-5.733,26.418
							c-1.853,8.812-3.704,17.621-5.345,26.468c-0.443,2.206-0.848,4.418-1.24,6.632c-0.389,2.215-0.819,4.424-1.174,6.643
							l-1.12,6.652l-1.01,6.668c-0.367,2.22-0.628,4.452-0.916,6.681c-0.284,2.23-0.62,4.457-0.806,6.697
							c-0.22,2.237-0.511,4.473-0.673,6.717c-0.128,2.245-0.28,4.492-0.449,6.745c-0.338-9.022,0.296-18.067,1.297-27.04
							c0.97-8.985,2.484-17.894,4.128-26.769c1.686-8.869,3.625-17.685,5.793-26.443
							C158.696,284.432,161.079,275.727,163.79,267.122z"/>
					</g>
					<g>
						<path style="fill:#F2CFAA;" d="M265.556,248.396c0,0,1.552,1.187,1.972,1.38c0.42,0.194,0.545-0.351,1.874,0.147
							c0,0,5.189-0.249,6.206,1.045c1.018,1.294,1.792,2.512,0.575,5.792c-0.424,0.924,4.668,4.819,1.867,6.278
							c-1.724,0.898-11.873-7.314-12.562-7.806c-0.689-0.492-2.625-1.692-2.625-1.692"/>
						<path style="fill:#E37F4F;" d="M240.944,229.85c0,0-3.951,4.216-3.913,10.378c-1.55,1.229-3.497,1.909-5.029,1.077
							c-0.756-0.416-1.588-1.04-2.438-1.796c-2.439-2.477-5.161-5.577-7.921-9.131c-0.284-0.378-0.435-0.605-0.435-0.605
							c-6.409-8.412-12.874-19.377-16.22-31.381c-1.777-6.352-1.097-13.819,4.858-17.033c0,0,4.953,1.21,8.166,7.278
							c2.514,4.726,7.543,14.972,12.307,24.084C234.97,221.551,239.337,229.283,240.944,229.85z"/>
						<g>
							<path style="fill:#E37F4F;" d="M206.835,176.937c5.616,1.312,10.242,4.918,12.924,10.024
								c0.684,1.301,1.223,2.673,1.761,4.041c2.305,5.864,5.011,12.997,7.316,18.86c-3.153,2.543-6.499,1.887-9.712,3.083
								c-3.011,1.121-6.275,1.559-9.475,1.272c-0.545-0.049-1.098-0.122-1.595-0.351c-0.667-0.308-1.176-0.872-1.658-1.425
								c-0.987-1.132-1.947-2.286-2.881-3.463c-0.801-1.009-1.599-2.069-1.934-3.312c-0.455-1.688,0-3.471,0.455-5.159"/>
						</g>
						<g>
							<path style="fill:#162838;" d="M209.495,132.615c2.553,7.75,0.604,17.915,4.542,24.633c1.576,2.689,4.247,4.802,5.003,7.825
								c0.636,2.541-0.35,5.414-2.412,7.029c-2.062,1.615-5.087,1.884-7.402,0.658c-0.499-0.264-0.972-0.594-1.515-0.753
								c-1.947-0.57-3.708,1.159-5.383,2.304c-2.053,1.404-4.729,2.042-7.087,1.253c-3.024-1.012-4.894-4.06-5.901-7.085
								c-2.816-8.457-0.816-17.715,1.787-26.24c1.301-4.259,3.221-8.985,7.398-10.531"/>
						</g>
						<path style="fill:#E37F4F;" d="M263.02,254.374c-12.685-6.067-30.059-12.243-33.734-15.018
							c-0.622-0.467-1.209-1.159-1.644-1.936c-0.788-1.387-1.09-3.023-0.239-4.141c0.425-0.551,1.025-1.137,1.732-1.722
							c2.654-2.197,6.778-4.413,8.255-5.187c0.337-0.179,0.536-0.272,0.536-0.272c3.188,1.928,7.798,5.542,12.467,9.366
							c6.423,5.253,12.969,10.91,16.152,13.177L263.02,254.374z"/>
						<path style="fill:#FBC8C7;" d="M199.423,190.48l-21.371-3.224l-14.69-8.184c0,0,15.273-5.062,15.404-6.579
							c0.131-1.532-0.525-16.994-0.525-16.994l8.023,4.872l7.046,4.289c0,0-0.029,1.59,0.044,3.37
							c0.087,2.159,0.335,4.595,0.992,4.872c2.349,1.007,5.004,1.546,5.004,1.546L199.423,190.48z"/>
						<path style="fill:#E5BE99;" d="M193.354,168.03c-6.623-3.093-8.534-7.965-8.534-7.965l1.444,0.306l7.046,4.289
							C193.31,164.66,193.281,166.25,193.354,168.03z"/>
						<path style="fill:#F2CFAA;" d="M276.18,254.328c0,0,1.006-3.296,0.239-3.946c-0.767-0.649-1.311-0.717-1.625-0.557
							c-0.314,0.16-0.79-0.422-1.345-0.573c-0.555-0.151-0.915,0.223-0.915,0.223s-0.009-0.046-0.894-0.421
							c-0.562-0.238-0.801,0.238-1.072,0.3c-0.28,0.063-0.729-0.28-1.142-0.103c-0.413,0.177-0.646,0.744-1.007,1.99
							c-0.362,1.246,0.031,3.283,0.602,4.264"/>
						<path style="fill:#E37F4F;" d="M211.018,233.442c-0.794,4.102-1.909,13.838-1.796,18.923c0.102,4.25,0.152,8.502,1.638,11.87
							c1.522,3.45-0.448,3.312-1.051,3.437c-26.882,5.578-49.442,0.047-54.748-1.451c-1.618-0.526,0.607-3.564,0.84-5.529
							c1.542-13.037,0.97-31.771-2.201-62.639c-1.172-11.475,2.004-14.518,2.741-15.445c1.777-2.306,4.537-3.63,6.163-4.461
							c5.01-2.533,14.027-4.215,14.027-4.215s4.65,13.781,16.768,15.445c6.617-2.722,6.031-11.078,5.936-14.916
							c2.155,0.586,3.119,1.191,9.83,3.176c1.872,2.703,0.246,8.356,3.29,16.768c0.756,2.117,3.043,9.49,2.892,16.39
							c-0.076,3.781,0,5.356-0.765,8.492C213.343,223.877,211.945,228.621,211.018,233.442z"/>
						<path style="fill:#FBC8C7;" d="M208.78,133.023c0,0,1.096,21.2-5.178,31.684c-3.139,5.245-13.435,1.835-20.181-4.741
							c-17.877,0.001-13.205-17.244-13.112-18.419c0.093-1.175,26.366-11.368,26.366-11.368L208.78,133.023z"/>
						<path style="fill:#F1F1F1;" d="M210.655,280.698"/>
						<g>
							<path style="fill:#162838;" d="M213.689,128.695c-0.248,2.319-1.269,5.098-3.238,6.192c-0.832,0.452-1.794,0.598-2.743,0.613
								c-3.034,0.058-5.543-1.911-8.505-1.59c-1.459,0.146-2.815,0.934-3.734,2.057c-1.065,1.327-0.919,3.165-2.174,4.406
								c-1.999,1.984-5.106,1.809-7.483,3.107c-0.394,0.204-0.802,0.452-1.021,0.831c-0.219,0.379-0.248,0.846-0.263,1.284
								c-0.044,1.24-0.087,2.494-0.131,3.749c-1.182-0.525-1.498-3.62-2.46-4.466c-0.934-0.802-2.853-1.104-4.417-0.134
								c-1.046,0.648-4.172,4.226-0.574,9.807c0.48,0.745,2.605,2.117,3.101,2.773c0,0,0.933,10.49-0.716,17.713
								c-0.34,1.49-1.905,2.352-3.369,1.915c-0.008-0.003-0.017-0.005-0.025-0.007c-2.305-0.686-4.828-1.225-7.075-0.35
								c-1.357,0.525-2.538,1.546-3.968,1.78c-1.342,0.233-2.655-0.263-3.895-0.919c-0.394-0.204-0.788-0.438-1.167-0.671
								c-2.042-1.211-3.924-2.509-4.785-4.829c-1.24-3.355-1.838-8.505-0.102-11.758c1.182-2.203,3.384-3.647,4.901-5.631
								c2.101-2.742,2.713-6.331,2.888-9.774c0.175-3.443-0.029-6.943,0.7-10.313c1.24-5.762,2.888-11.261,7.323-14.981
								c7.119-5.952,23.481-8.733,39.27,1.429C212.506,122.522,214.039,125.354,213.689,128.695z"/>
						</g>
						<path style="fill:#25405C;" d="M192.758,146.839c0.032,0.882,0.626,1.577,1.327,1.552c0.701-0.025,1.244-0.761,1.212-1.643
							c-0.032-0.882-0.626-1.577-1.327-1.552C193.269,145.22,192.726,145.956,192.758,146.839z"/>
						<path style="fill:#25405C;" d="M204.484,146.93c0.03,0.836,0.593,1.494,1.257,1.47c0.665-0.024,1.179-0.721,1.149-1.557
							c-0.03-0.836-0.593-1.494-1.258-1.47C204.968,145.397,204.454,146.094,204.484,146.93z"/>
						<g>
							<path style="fill:#25405C;" d="M191.399,143.759c0.083-0.102,0.142-0.213,0.235-0.311c0.136-0.144,0.28-0.283,0.422-0.421
								c0.347-0.334,0.832-0.566,1.307-0.654c0.295-0.054,0.579-0.066,0.876-0.032c0.301,0.035,0.564,0.129,0.851,0.215
								c0.219,0.066,0.458,0.001,0.56-0.221c0.1-0.218-0.004-0.443-0.206-0.548c0.191,0.165,0.222,0.184,0.093,0.055
								c-0.031-0.018-0.062-0.037-0.093-0.055c-0.045-0.024-0.089-0.043-0.137-0.062c-0.09-0.035-0.182-0.066-0.275-0.093
								c-0.204-0.059-0.414-0.106-0.626-0.13c-0.426-0.047-0.88-0.032-1.292,0.094c-0.554,0.171-1.073,0.53-1.41,1.004
								c-0.102,0.144-0.19,0.284-0.227,0.457c-0.047,0.218-0.118,0.474-0.118,0.699C191.36,143.784,191.389,143.772,191.399,143.759
								L191.399,143.759z"/>
						</g>
						<g>
							<path style="fill:#25405C;" d="M208.004,142.993c-0.014-0.377-0.16-0.772-0.379-1.073c-0.293-0.404-0.69-0.691-1.162-0.849
								c-0.772-0.259-1.649-0.132-2.375,0.21c-0.196,0.092-0.264,0.367-0.167,0.55c0.109,0.205,0.343,0.245,0.539,0.155
								c-0.032,0.013-0.064,0.026-0.096,0.038c0.032-0.013,0.064-0.026,0.096-0.038c0.031-0.014,0.062-0.029,0.094-0.042
								c0.058-0.023,0.119-0.043,0.179-0.061c0.159-0.049,0.322-0.088,0.487-0.113c0.301-0.046,0.619-0.039,0.917,0.021
								c0.36,0.072,0.738,0.237,1.05,0.433c0.156,0.098,0.306,0.224,0.442,0.349c0.146,0.133,0.224,0.303,0.342,0.455
								C207.989,143.051,208.004,143.006,208.004,142.993L208.004,142.993z"/>
						</g>
						<path style="fill:#B55D5D;" d="M178.04,148.602c0.692-0.619,1.83-0.339,2.528,0.12c0.708,0.465,1.244,1.169,1.561,1.95
							c0.293,0.722,0.396,1.511,0.318,2.284c-0.072,0.723-0.311,1.701-0.961,2.12c-0.092,0.059-0.264,0.036-0.249-0.103
							c0.038-0.336,0.234-0.656,0.345-0.974c0.112-0.319,0.186-0.653,0.226-0.989c0.079-0.671,0.004-1.368-0.222-2.005
							c-0.018-0.052-0.044-0.1-0.064-0.15c-0.004,0.002-0.006,0.004-0.01,0.006c-0.65,0.227-1.266,0.553-1.759,1.041
							c-0.514,0.509-0.837,1.159-1.054,1.839c-0.014,0.044-0.117,0.129-0.138,0.045c-0.2-0.801,0.253-1.648,0.79-2.215
							c0.53-0.56,1.208-0.952,1.924-1.224c-0.229-0.399-0.521-0.76-0.887-1.045c-0.668-0.52-1.436-0.598-2.25-0.472
							C177.994,148.852,177.936,148.696,178.04,148.602z"/>
						<g>
							<path style="fill:#B55D5D;" d="M201.291,144.833c0.05,0.69,0.29,1.363,0.465,2.029c0.179,0.68,0.36,1.359,0.534,2.04
								c0.338,1.33,0.636,2.67,0.904,4.016c0.127,0.637,0.28,1.284,0.346,1.93c0.069,0.674-0.128,1.201-0.774,1.475
								c-0.582,0.247-1.255,0.344-1.882,0.39c-0.336,0.025-0.673,0.025-1.009,0.003c-0.234-0.016-0.512-0.089-0.739-0.01
								c-0.09,0.032-0.068,0.181,0.004,0.221c0.366,0.203,0.835,0.208,1.243,0.223c0.592,0.02,1.187-0.026,1.766-0.15
								c0.919-0.198,1.855-0.567,1.912-1.639c0.026-0.494-0.09-0.987-0.18-1.469c-0.114-0.613-0.235-1.224-0.366-1.833
								c-0.251-1.17-0.532-2.334-0.837-3.491c-0.334-1.265-0.65-2.617-1.255-3.783C201.38,144.703,201.285,144.753,201.291,144.833
								L201.291,144.833z"/>
						</g>
						<g>
							<path style="fill:#B55D5D;" d="M193.084,157.725c-0.099,0.191-0.003,0.386,0.053,0.581c0.072,0.255,0.227,0.468,0.387,0.676
								c0.28,0.361,0.634,0.659,1.006,0.921c0.702,0.495,1.486,0.865,2.313,1.098c0.402,0.114,0.837,0.223,1.256,0.25
								c0.229,0.015,0.538-0.094,0.664-0.307c0.17-0.288-0.144-0.655-0.421-0.721c-0.402-0.096-0.807-0.135-1.206-0.255
								c-0.419-0.125-0.82-0.29-1.214-0.481c-0.4-0.194-0.77-0.43-1.135-0.683c-0.272-0.188-0.549-0.382-0.803-0.596
								c-0.102-0.086-0.21-0.151-0.316-0.232c-0.136-0.105-0.233-0.227-0.382-0.317C193.21,157.613,193.121,157.654,193.084,157.725
								L193.084,157.725z"/>
						</g>
					</g>
					<g>
						<path style="fill:#9A4129;" d="M208.853,192.52c1.699,2.926,3.21,5.962,4.492,9.105c1.257,3.148,2.447,6.364,2.772,9.889
							c0.23,3.53-0.594,6.932-1.579,10.163c-0.974,3.252-2.224,6.367-3.081,9.639c0.315-3.379,1.231-6.675,2.014-9.93
							c0.762-3.253,1.472-6.54,1.233-9.769c-0.26-3.214-1.358-6.435-2.391-9.606C211.22,198.842,210.057,195.68,208.853,192.52z"/>
					</g>
					<g>
						<path style="fill:#9A4129;" d="M230.142,229.781c0.134-0.792,0.542-1.488,1.051-2.079c0.51-0.596,1.152-1.077,1.854-1.43
							c0.698-0.355,1.494-0.56,2.196-0.641c0.725-0.104,1.467-0.152,2.26-0.043c-0.583,0.547-1.217,0.938-1.868,1.273
							c-0.676,0.348-1.258,0.591-1.85,0.891c-0.591,0.291-1.164,0.607-1.764,0.934L230.142,229.781z"/>
					</g>
					<g>
						<path style="fill:#9A4129;" d="M200.322,181.361c-0.079,1.504-0.395,2.991-0.862,4.439c-0.497,1.432-1.203,2.842-2.323,3.965
							c-1.087,1.16-2.727,1.79-4.315,1.799c-1.596,0.002-3.12-0.465-4.526-1.085c-2.768-1.344-5.241-3.202-7.3-5.444
							c-2.033-2.26-3.74-4.796-4.935-7.559c0.736,1.309,1.62,2.516,2.535,3.7c0.894,1.191,1.867,2.318,2.925,3.355
							c2.099,2.072,4.505,3.877,7.168,5.089c1.316,0.613,2.722,1.062,4.137,1.086c1.413,0.016,2.753-0.507,3.812-1.464
							c1.069-0.947,1.825-2.249,2.393-3.607C199.628,184.279,200.033,182.833,200.322,181.361z"/>
					</g>
				</g>
				<g>
					<path style="opacity:0.25;fill:#1E3239;" d="M375.705,460.026c0,4.655-22.471,8.429-50.19,8.429
						c-27.719,0-50.19-3.774-50.19-8.429c0-4.655,22.471-8.429,50.19-8.429C353.235,451.597,375.705,455.371,375.705,460.026z"/>
					<g id="Character_2_">
						<g>
							<g>
								<polygon style="fill:#FBC8C7;" points="308.397,434.648 308.397,443.812 323.341,443.812 323.341,434.078 								"/>
								<path style="fill:#24405E;" d="M307.824,443.987l-2.704,3.549c0,0-17.62-0.498-21.988,8.311v5.54h24.845l0.779-3.203
									l3.463,0.173v3.03h13.764l-1.645-18.353l-16.255,0L307.824,443.987z"/>
								<path style="fill:#FFFFFF;" d="M283.134,455.845v5.542h24.847l0.779-3.206l3.458,0.172v3.034h13.763l-0.515-5.84h-0.012
									C325.454,455.547,293.198,456.578,283.134,455.845z"/>
								<path style="fill:#FFFFFF;" d="M312.185,443.036c0,0-0.916,6.428-6.25,7.021c-5.334,0.593-12.344,0.766-12.8-0.953
									c0,0,6.697-2.524,11.985-1.567c0,0,1.937-3.815,2.317-4.175C307.817,443.001,312.185,443.036,312.185,443.036z"/>
								<g>
									<path style="fill:#141D26;" d="M303.86,449.168c-0.231-0.015-0.425-0.113-0.602-0.226
										c-0.182-0.111-0.327-0.265-0.456-0.428c-0.118-0.172-0.229-0.35-0.282-0.556c-0.062-0.201-0.096-0.411-0.062-0.636
										c0.186,0.135,0.313,0.282,0.446,0.422c0.134,0.138,0.243,0.285,0.355,0.429
										C303.476,448.472,303.674,448.764,303.86,449.168z"/>
								</g>
								<g>
									<path style="fill:#141D26;" d="M299.984,449.671c-0.231-0.015-0.425-0.113-0.602-0.226
										c-0.182-0.111-0.326-0.265-0.456-0.428c-0.118-0.172-0.229-0.35-0.282-0.556c-0.062-0.201-0.096-0.411-0.062-0.636
										c0.186,0.135,0.313,0.282,0.446,0.422c0.134,0.138,0.243,0.285,0.356,0.429C299.6,448.975,299.798,449.267,299.984,449.671
										z"/>
								</g>
							</g>
							<g>
								<polygon style="fill:#FBC8C7;" points="341.903,437.388 341.903,446.553 356.847,446.553 356.847,436.818 								"/>
								<path style="fill:#24405E;" d="M341.329,446.728l-2.704,3.549c0,0-17.62-0.498-21.988,8.311v5.54h24.845l0.779-3.203
									l3.463,0.173v3.03h13.764l-1.645-18.353l-16.255,0L341.329,446.728z"/>
								<path style="fill:#FFFFFF;" d="M316.639,458.586v5.542h24.847l0.779-3.206l3.458,0.172v3.034h13.763l-0.515-5.84h-0.012
									C358.959,458.288,326.704,459.318,316.639,458.586z"/>
								<path style="fill:#FFFFFF;" d="M345.691,445.776c0,0-0.916,6.428-6.251,7.021c-5.334,0.593-12.344,0.766-12.8-0.953
									c0,0,6.697-2.524,11.985-1.567c0,0,1.937-3.815,2.317-4.175C341.323,445.741,345.691,445.776,345.691,445.776z"/>
								<g>
									<path style="fill:#141D26;" d="M337.366,451.908c-0.231-0.015-0.425-0.112-0.602-0.226
										c-0.182-0.111-0.327-0.265-0.456-0.428c-0.118-0.172-0.229-0.35-0.282-0.557c-0.062-0.201-0.096-0.411-0.062-0.636
										c0.186,0.135,0.313,0.282,0.446,0.422c0.134,0.138,0.243,0.285,0.355,0.429
										C336.982,451.213,337.18,451.504,337.366,451.908z"/>
								</g>
								<g>
									<path style="fill:#141D26;" d="M333.49,452.411c-0.231-0.015-0.425-0.113-0.602-0.226
										c-0.182-0.111-0.326-0.265-0.456-0.428c-0.118-0.172-0.229-0.35-0.282-0.557c-0.062-0.201-0.096-0.411-0.061-0.636
										c0.186,0.135,0.313,0.282,0.446,0.422c0.134,0.138,0.243,0.284,0.356,0.429
										C333.106,451.716,333.304,452.007,333.49,452.411z"/>
								</g>
							</g>
							<path style="fill:#558283;" d="M292.938,259.225c0,0-0.466,65.747,3.73,99.787c4.197,34.039,9.792,79.736,9.792,79.736
								h17.719l5.595-69.944l11.657,73.674h15.388c0,0,7.927-140.354,6.062-175.326L292.938,259.225z"/>
							<path style="fill:#3E6868;" d="M313.921,276.944c0,0-1.399,129.63,0,161.804l9.792-0.855l6.062-69.089
								C329.775,368.804,320.134,292.99,313.921,276.944z"/>
						</g>
						<g>
							<g>
								<path style="fill:#FBC8C7;" d="M264.127,237.38c-3.759,2.344-7.464,6.934-11.077,5.739
									c-4.224-1.397-5.764,0.074-8.763,2.042c-2.999,1.968-5.53,3.447-5,4.659c0.53,1.212,3.39,0.465,5.295-0.679
									c-2.019,2.341-4.323,3.781-7.504,4.79c-3.18,1.009-3.614,1.647-3.824,2.737c-0.21,1.09,0.956,1.583,0.956,1.583
									c-0.979,0.281-2.166,0.908-2.129,2.373c0.031,1.202,1.463,1.829,2.136,1.699c-0.653,1.199,0.823,2.944,2.557,2.548
									c-0.094,1.058,1.21,2.118,3.827,1.392c3.264-0.905,6.859-2.681,9.465-4.231c4.658-2.771,6.83-4.605,8.003-5.288
									c7.162-4.17,7.356-4.115,7.356-4.115s6.919-5.201,7.663-10.459C273.832,236.913,264.127,237.38,264.127,237.38z"/>
								<g>
									<path style="fill:#FB929C;" d="M236.773,264.871c0.291-1.726,2.423-2.248,3.83-2.76c1.539-0.527,3.022-1.225,4.455-2.002
										c-0.656,0.494-1.374,0.9-2.102,1.279c-1.427,0.808-3.083,1.126-4.547,1.824
										C237.712,263.572,236.944,264.046,236.773,264.871L236.773,264.871z"/>
								</g>
								<g>
									<path style="fill:#FB929C;" d="M234.216,262.323c0.623-1.829,2.883-1.994,4.415-2.65c1.656-0.608,3.299-1.261,4.89-2.029
										c-1.492,0.965-3.145,1.646-4.798,2.283C237.161,260.581,235.038,260.614,234.216,262.323L234.216,262.323z"/>
								</g>
								<g>
									<path style="fill:#FB929C;" d="M234.209,258.251c2.324-1.011,5.8-2.366,8.06-3.436
										C239.797,256.375,237.007,257.433,234.209,258.251L234.209,258.251z"/>
								</g>
							</g>
							<path style="fill:#FBC8C7;" d="M258.039,242c2.885,0.777,7.971,4.828,7.386,10.63c0,0,20.314-7.253,23.111-8.246
								c2.797-0.993,4.624-2.311,4.986-3.29c0.363-0.979-11.814-17.225-11.814-17.225L258.039,242z"/>
							<polygon style="fill:#FBC8C7;" points="282.302,213.567 281.708,223.868 293.651,242.983 301.681,221.023 300.589,213.431 
															"/>
						</g>
						<path style="fill:#122433;" d="M300.224,175.152c-7.026,1.905-13.31,7.663-15.766,12.892
							c-5.24,11.152-4.635,25.677-4.635,25.677l10.259,2.882L300.224,175.152z"/>
						<g id="Chartacter_2_">
							<g>
								<path style="fill:#66483C;" d="M315.272,120.829c-0.592-2.673-8.087-9.807-19.758-5.105
									c-11.671,4.702-16.437,12.123-16.278,20.309c0.159,8.186,8.58,11.619,8.58,11.619c9.913,0.564,17.939,5.332,25.526,11.397
									c0.721,0.577,1.917,1.646,2.923,1.593c1.022-0.054,2.119-1.45,2.837-2.119c1.957-1.823,3.764-3.807,5.395-5.926
									c1.23-1.597,2.366-3.28,3.209-5.111c1.693-3.674,2.146-7.879,1.454-11.865c-0.949-5.463-3.868-11.758-9.205-13.876
									C317.381,120.723,315.266,120.799,315.272,120.829z"/>
								<path style="fill:#FBC8C7;" d="M291.354,128.402c-0.215-0.1-0.446-0.156-0.687-0.152c-0.888,0.016-2.039,0.847-2.568,1.545
									c-0.484,0.638-0.793,1.393-1.023,2.154c-0.7,2.316-0.786,4.828-0.875,7.227c-0.161,4.364,0.718,13.596,1.731,17.498
									c0.808,3.113,1.281,4.042,1.967,5.239c2.61,4.551,7.882,4.593,11.781,3.556c0.41,1.831,0.863,3.768,1.125,5.508
									c0.436,2.899-0.586,4.675-3.595,5.687c-1.217,5.946-2.986,16.787,8.667,15.543c18.161-1.939,17.626-15.194,18.073-22.613
									c-3.583-2.106-5.221-3.218-5.91-8.125c-0.547-3.896-1.128-9.598-1.128-9.598s3.871,0.228,5.941-4.166
									c2.17-4.605,1.433-9.83-2.976-10.534c-3.433-0.547-5.64,2.672-6.243,5.478c-0.234,1.089-1.427,1.909-2.449,1.187
									c-1.206-0.852-0.635-2.607-1.571-3.575c-0.586-0.606-1.243-0.959-1.721-1.709c-0.451-0.707-0.76-1.505-0.954-2.319
									c-0.421-1.763-0.375-3.6-0.592-5.4c-0.098-0.807-0.261-1.638-0.736-2.298c-0.943-1.311-2.846-1.557-4.407-1.142
									c-2.279,0.606-4.067,2.27-5.619,3.965c-0.635,0.694-1.076,1.178-2.043,1.292c-1.149,0.135-1.857-0.612-2.329-1.586
									c-0.293-0.605-0.508-1.254-0.89-1.808C292.077,128.899,291.741,128.581,291.354,128.402z"/>
								
									<linearGradient id="SVGID_00000052794881989946877740000012292035040530895295_" gradientUnits="userSpaceOnUse" x1="311.9039" y1="15.5236" x2="304.8731" y2="8.2058" gradientTransform="matrix(0.985 -0.1723 0.1723 0.985 5.7596 205.6911)">
									<stop  offset="0" style="stop-color:#FBC8C7"/>
									<stop  offset="0.9947" style="stop-color:#FB929C"/>
								</linearGradient>
								<path style="fill:url(#SVGID_00000052794881989946877740000012292035040530895295_);" d="M301.681,165.469
									c3.436-0.718,9.914-3.607,12.437-10.077c0.136,8.086-6.111,11.767-11.858,12.752L301.681,165.469z"/>
								<g>
									<path style="fill:#FB929C;" d="M320.654,151.604c-2.995,0.442-4.763-1.153-5.048-2.747
										C314.968,150.474,317.39,153.264,320.654,151.604L320.654,151.604z"/>
								</g>
								<path style="fill:#FB929C;" d="M323.611,141.013c-0.643-0.773-1.906-0.653-2.727-0.272c-0.832,0.385-1.517,1.054-1.981,1.84
									c-0.429,0.726-0.664,1.555-0.703,2.396c-0.037,0.786,0.063,1.871,0.692,2.423c0.089,0.078,0.277,0.081,0.283-0.071
									c0.013-0.366-0.146-0.739-0.215-1.097c-0.069-0.36-0.095-0.729-0.085-1.095c0.021-0.731,0.213-1.466,0.556-2.112
									c0.028-0.052,0.063-0.1,0.093-0.151c0.004,0.002,0.006,0.006,0.01,0.008c0.66,0.346,1.268,0.793,1.718,1.394
									c0.47,0.626,0.713,1.374,0.837,2.137c0.008,0.05,0.105,0.157,0.141,0.07c0.341-0.826-0.009-1.805-0.494-2.498
									c-0.479-0.684-1.142-1.211-1.866-1.617c0.309-0.391,0.679-0.731,1.116-0.978c0.797-0.451,1.633-0.413,2.484-0.149
									C323.621,141.288,323.708,141.13,323.611,141.013z"/>
								<g>
									<path style="fill:#122433;" d="M302.984,145.842c0.051,0.86-0.462,1.59-1.145,1.63s-1.279-0.624-1.33-1.484
										c-0.051-0.86,0.462-1.59,1.145-1.63C302.337,144.317,302.933,144.982,302.984,145.842z"/>
									<path style="fill:#122433;" d="M291.475,146.617c0.048,0.815-0.438,1.506-1.085,1.545c-0.647,0.038-1.212-0.591-1.26-1.405
										c-0.048-0.815,0.437-1.506,1.085-1.545C290.862,145.174,291.426,145.803,291.475,146.617z"/>
									<g>
										<path style="fill:#66483C;" d="M303.31,139.856c-0.09-0.092-0.158-0.193-0.257-0.28c-0.145-0.127-0.298-0.249-0.449-0.369
											c-0.368-0.293-0.861-0.473-1.33-0.514c-0.292-0.025-0.569-0.011-0.853,0.05c-0.289,0.062-0.536,0.177-0.807,0.288
											c-0.206,0.084-0.445,0.044-0.564-0.163c-0.117-0.203-0.037-0.43,0.15-0.551c-0.171,0.178-0.199,0.199-0.085,0.062
											c0.028-0.021,0.056-0.041,0.085-0.062c0.041-0.028,0.083-0.05,0.127-0.073c0.085-0.043,0.171-0.081,0.259-0.116
											c0.193-0.077,0.393-0.142,0.596-0.184c0.409-0.086,0.852-0.113,1.263-0.028c0.554,0.114,1.091,0.415,1.462,0.844
											c0.112,0.13,0.211,0.258,0.263,0.423c0.066,0.208,0.159,0.449,0.179,0.668C303.35,139.876,303.321,139.867,303.31,139.856
											L303.31,139.856z"/>
									</g>
									<g>
										<path style="fill:#66483C;" d="M287.211,141.033c-0.022-0.368,0.084-0.764,0.269-1.078
											c0.247-0.419,0.606-0.734,1.05-0.932c0.726-0.324,1.59-0.281,2.326-0.017c0.199,0.071,0.29,0.332,0.213,0.519
											c-0.086,0.21-0.31,0.27-0.509,0.201c0.032,0.01,0.064,0.019,0.096,0.029c-0.032-0.01-0.064-0.019-0.096-0.029
											c-0.032-0.01-0.063-0.022-0.095-0.032c-0.059-0.017-0.119-0.03-0.179-0.043c-0.159-0.033-0.321-0.056-0.483-0.065
											c-0.296-0.017-0.604,0.019-0.889,0.105c-0.343,0.103-0.695,0.299-0.979,0.517c-0.142,0.109-0.276,0.247-0.397,0.38
											c-0.129,0.143-0.189,0.315-0.29,0.473C287.23,141.088,287.212,141.046,287.211,141.033L287.211,141.033z"/>
									</g>
									<g>
										<path style="fill:#FB929C;" d="M294.366,141.294c0.016,0.675-0.155,1.351-0.264,2.013
											c-0.111,0.677-0.224,1.353-0.329,2.031c-0.205,1.323-0.37,2.652-0.506,3.984c-0.064,0.63-0.153,1.273-0.157,1.907
											c-0.004,0.661,0.236,1.155,0.888,1.361c0.588,0.186,1.251,0.217,1.864,0.204c0.328-0.007,0.656-0.038,0.98-0.091
											c0.226-0.037,0.489-0.134,0.717-0.078c0.091,0.022,0.083,0.169,0.016,0.215c-0.336,0.231-0.791,0.28-1.186,0.331
											c-0.573,0.074-1.155,0.085-1.729,0.018c-0.911-0.107-1.854-0.378-2.008-1.415c-0.071-0.477-0.004-0.967,0.039-1.443
											c0.054-0.605,0.115-1.211,0.186-1.814c0.135-1.16,0.3-2.316,0.489-3.468c0.207-1.259,0.389-2.602,0.869-3.79
											C294.267,141.177,294.365,141.216,294.366,141.294L294.366,141.294z"/>
									</g>
									<g>
										<path style="fill:#FB929C;" d="M302.844,153.024c-0.2,0.138-0.334,0.354-0.497,0.533
											c-0.238,0.261-0.488,0.498-0.757,0.725c-0.314,0.265-0.631,0.509-0.982,0.723c-0.656,0.401-1.342,0.711-2.09,0.898
											c-0.271,0.067-0.465,0.147-0.611,0.408c-0.046,0.081-0.074,0.161-0.053,0.254c0.04,0.173,0.249,0.364,0.418,0.401
											c0.209,0.047,0.476-0.053,0.68-0.109c0.195-0.054,0.389-0.115,0.579-0.184c0.789-0.287,1.509-0.692,2.167-1.212
											c0.36-0.286,0.69-0.609,0.971-0.974c0.257-0.335,0.721-0.93,0.461-1.363C303.082,153.047,302.929,152.965,302.844,153.024
											L302.844,153.024z"/>
									</g>
								</g>
							</g>
						</g>
						<path style="fill:#25405C;" d="M357.001,257.99c-3.416-8.783-12.811-33.286-13.016-37.624
							c-0.25-5.304-0.65-44.392-0.65-44.392l-17.385-6.382l0.686,5.804c-6.484,5.538-22.359,9.669-30.583,5.349
							c0,0-7.111,21.229-3.267,43.209l7.682,43.923C314.283,269.334,335.009,264.26,357.001,257.99z"/>
						<path style="fill:#25405C;" d="M369.123,277.903c-4.947-7.878-14.885-49.879-15.403-53.509
							c-0.752-5.263-6.725-20.838-6.004-32.725c0.741-12.218-1.897-15.786-1.897-15.786s-1.895-0.964-8.787-3.339
							c-6.892-2.376-12.494-3.934-12.494-3.934c-6.314,14.552-7.488,31.013-3.983,51.053c2.764,15.806-31.604,56.574-29.469,64.13
							C302.378,284.569,358.565,284.588,369.123,277.903z"/>
						<path style="fill:#25405C;" d="M293.141,268.928c2.307,0.525,6.838,0.83,10.956,0.928c-1.846-9.659-7.667-41.173-9.038-57.891
							c-0.565-6.882-1.158-17.985,4.371-31.574c0.934-2.297,2.934-5.08,3.358-7.095c-1.189,1.878-6.151,3.963-6.151,3.963
							s-5.792,5.867-9.561,16.282c-3.139,8.676-4.453,11.903-3.507,19.268c0.946,7.365,4.419,12.576,5.683,18.797
							C292.23,246.258,291.96,260.2,293.141,268.928z"/>
						<g>
							<rect x="213.765" y="213.679" style="fill:#E0A23C;" width="77.678" height="58.608"/>
							<rect x="241.688" y="213.679" style="fill:#EFDE9D;" width="21.832" height="26.861"/>
						</g>
						<g>
							<g>
								<path style="fill:#FBC8C7;" d="M227.159,255.316c3.638,1.574,7.525,5.141,10.563,3.603c3.55-1.798,5.109-0.702,8.024,0.64
									c2.915,1.342,5.351,2.313,5.043,3.456c-0.308,1.143-2.937,0.862-4.774,0.104c2.097,1.802,4.327,2.77,7.275,3.239
									c2.947,0.469,3.416,0.976,3.747,1.912c0.331,0.936-0.635,1.528-0.635,1.528c0.903,0.118,2.037,0.515,2.199,1.816
									c0.133,1.068-1.051,1.812-1.664,1.787c0.737,0.974-0.336,2.714-1.923,2.594c0.224,0.924-0.789,2.035-3.2,1.741
									c-3.008-0.367-6.424-1.459-8.936-2.484c-4.489-1.831-6.655-3.165-7.783-3.613c-6.891-2.736-7.054-2.661-7.054-2.661
									s-6.813-3.681-8.17-8.233C218.512,256.194,227.159,255.316,227.159,255.316z"/>
								<g>
									<path style="fill:#FB929C;" d="M255.014,275.995c-0.487-1.488-2.443-1.667-3.755-1.932
										c-1.432-0.261-2.836-0.682-4.207-1.178c0.646,0.349,1.335,0.613,2.03,0.852c1.37,0.525,2.877,0.586,4.265,1.009
										C254.01,274.971,254.753,275.289,255.014,275.995L255.014,275.995z"/>
								</g>
								<g>
									<path style="fill:#FB929C;" d="M256.937,273.401c-0.794-1.535-2.815-1.38-4.258-1.757
										c-1.546-0.318-3.087-0.676-4.596-1.145c1.448,0.655,3.001,1.037,4.548,1.381
										C254.1,272.252,255.983,271.999,256.937,273.401L256.937,273.401z"/>
								</g>
								<g>
									<path style="fill:#FB929C;" d="M256.402,269.798c-2.191-0.585-5.445-1.321-7.587-1.967
										C251.208,268.882,253.818,269.447,256.402,269.798L256.402,269.798z"/>
								</g>
							</g>
							<path style="fill:#E37F4F;" d="M230.55,270.438c0,0,5.557-7.115,6.957-11.575c0,0-20.026-10.178-24.198-13.19
								c-4.172-3.013-17.982-11.16-18.597-12.106c-0.615-0.946-11.092-19.538-11.092-19.538l-16.497,12.148
								c0,0,8.803,12.779,12.243,16.758c3.441,3.98,8.598,7.9,14.488,11.448C199.744,257.93,230.55,270.438,230.55,270.438z"/>
							<g>
								<path style="fill:#E37F4F;" d="M158.631,180.517c0,0-11.393,5.237-8.621,18.327c0.842,3.977,10.089,28.217,10.089,28.217
									s7.016-0.255,12.321-2.432c5.677-2.329,11.2-10.602,11.2-10.602s-5.487-7.035-6.627-12.354
									c-0.71-3.315,4.103-1.188,4.103-1.188l-5.616-17.672L158.631,180.517z"/>
							</g>
							<g>
								<path style="fill:#9A4129;" d="M150.799,201.549c2.279,3.82,4.578,7.623,6.971,11.367c2.357,3.764,4.767,7.495,7.292,11.143
									c2.544,3.632,5.056,7.29,7.826,10.739c2.763,3.445,5.647,6.814,9.019,9.592c3.37,2.784,7.098,5.2,10.92,7.424
									c3.823,2.233,7.739,4.314,11.68,6.353c3.946,2.031,7.932,3.99,11.955,5.874c4.004,1.928,8.053,3.76,12.108,5.587
									c-4.178-1.529-8.287-3.238-12.394-4.953c-4.088-1.759-8.136-3.612-12.156-5.531c-4.034-1.892-7.955-4.02-11.842-6.214
									c-3.877-2.21-7.671-4.604-11.18-7.453c-3.468-2.917-6.365-6.378-9.124-9.884c-2.749-3.525-5.3-7.186-7.715-10.932
									C159.31,217.185,154.853,209.469,150.799,201.549z"/>
							</g>
							<g>
								<path style="fill:#9A4129;" d="M172.394,200.241c1.711,2.413,3.356,4.868,5.048,7.291l4.976,7.332
									c3.341,4.867,6.604,9.795,10.048,14.562c0.858,1.188,1.729,2.381,2.653,3.468c0.473,0.573,0.871,0.911,1.525,1.335
									l1.832,1.222l7.403,4.86c4.917,3.274,9.898,6.477,14.569,10.118c-2.492-1.592-5.018-3.117-7.563-4.619l-7.584-4.584
									c-2.539-1.513-5.043-3.079-7.551-4.654c-0.628-0.392-1.249-0.799-1.871-1.211c-0.321-0.236-0.601-0.376-0.957-0.691
									c-0.343-0.297-0.589-0.574-0.845-0.867c-0.998-1.156-1.877-2.347-2.758-3.546c-3.452-4.83-6.682-9.78-9.815-14.796
									l-4.647-7.553C175.361,205.355,173.832,202.826,172.394,200.241z"/>
							</g>
							<g>
								<path style="fill:#9A4129;" d="M190.258,233.7c0.892-0.252,1.826-0.389,2.782-0.41c0.955-0.014,1.948,0.107,2.92,0.499
									l-0.636,1.161c-0.654-0.475-1.479-0.806-2.35-1.002C192.102,233.755,191.182,233.666,190.258,233.7z"/>
							</g>
						</g>
						<g>
							<path style="fill:#FBC8C7;" d="M341.372,244.135c-6.401,4.686-33.668,17.967-33.668,17.967s-1.622-9.836-5.137-14.101
								c0,0,22.02-16.71,23.716-19.713c0.148-0.622-0.018-4.444-0.15-9.178c4.434,1.488,12.212,3.191,23.777,2.657
								C348.532,235.458,348.29,239.065,341.372,244.135z"/>
							<path style="fill:#25405C;" d="M349.91,221.767c-11.565,0.534-19.343-1.169-23.777-2.657
								c-0.162-6.115-0.26-13.753,0.462-18.013c1.799-10.526,8.396-21.857,19.267-24.852c6.056,5.792,8.093,11.55,7.451,16.502
								c-0.601,4.628-2.132,16.504-3.285,27.82C349.983,220.974,349.949,221.376,349.91,221.767z"/>
							<path style="fill:#122433;" d="M328.811,226.358c-0.611,0.385-1.136,0.959-1.671,1.443c-0.24,0.217-0.48,0.435-0.718,0.654
								c-0.224-7.049-0.784-14.115-0.301-21.165c0.453-6.609,1.939-13.171,5.217-18.979c1.745-3.092,4.037-5.988,6.717-8.32
								c0.034-0.03,0.046-0.149-0.019-0.104c-1.405,0.956-2.748,2.055-3.896,3.314c-1.105,1.212-2.073,2.539-2.939,3.931
								c-1.721,2.766-2.985,5.799-3.901,8.921c-1.944,6.63-2.198,13.591-2.025,20.455c0.104,4.134,0.376,8.262,0.529,12.394
								c0.001,0.034,0.013,0.064,0.024,0.095c-0.104,0.094-0.206,0.19-0.31,0.283c-1.093,0.969-2.213,1.906-3.339,2.837
								c-2.196,1.816-4.432,3.584-6.597,5.437c-1.293,1.107-2.559,2.243-3.793,3.415c-0.025,0.024-0.026,0.115,0.021,0.079
								c4.65-3.658,9.514-7.047,13.891-11.04c0.587-0.536,1.172-1.077,1.735-1.638c0.527-0.526,1.121-1.088,1.508-1.728
								C328.99,226.564,328.953,226.269,328.811,226.358z"/>
							<path style="fill:#122433;" d="M310.891,250.823c-0.291-0.803-0.629-1.594-1.053-2.336c-0.221-0.386-0.457-0.763-0.708-1.13
								c-0.236-0.344-0.452-0.758-0.846-0.924c-0.115-0.048-0.286-0.011-0.303,0.136c-0.043,0.367,0.258,0.6,0.467,0.876
								c0.223,0.295,0.435,0.598,0.637,0.908c0.478,0.736,0.916,1.502,1.284,2.299c0.759,1.643,1.209,3.442,1.399,5.24
								c0.01,0.092,0.104,0.023,0.102-0.041C311.827,254.123,311.48,252.448,310.891,250.823z"/>
						</g>
						<path style="fill:#25405C;" d="M302.789,173.296c0,0-2.058,6.074,4.771,4.963c6.829-1.11,15.9-10.247,15.9-10.247l3.717,1.365
							l-1.28,11.559l-20.969,4.592l-6.569-0.533l-2.62-5.847L302.789,173.296z"/>
						<g>
							<path style="fill:#FBC8C7;" d="M307.772,244.182c-4.47,2.509-8.997,7.616-13.11,6.042c-4.807-1.84-6.666-0.223-10.238,1.892
								c-3.571,2.115-6.576,3.689-6.028,5.118c0.548,1.429,3.893,0.718,6.156-0.502c-2.458,2.598-5.199,4.139-8.928,5.136
								c-3.73,0.996-4.266,1.711-4.566,2.959c-0.301,1.249,1.02,1.881,1.02,1.881c-1.146,0.272-2.552,0.934-2.587,2.629
								c-0.029,1.391,1.593,2.192,2.378,2.078c-0.819,1.351,0.794,3.447,2.819,3.082c-0.165,1.218,1.286,2.513,4.349,1.814
								c3.821-0.872,8.07-2.732,11.166-4.385c5.531-2.953,8.141-4.958,9.533-5.685c8.501-4.437,8.721-4.363,8.721-4.363
								s8.275-5.642,9.415-11.679C319.014,244.16,307.772,244.182,307.772,244.182z"/>
							<g>
								<path style="fill:#FB929C;" d="M274.688,274.496c0.429-1.98,2.921-2.469,4.574-2.985c1.807-0.527,3.558-1.255,5.256-2.076
									c-0.785,0.536-1.636,0.967-2.498,1.366c-1.692,0.858-3.624,1.137-5.353,1.866
									C275.843,273.044,274.93,273.552,274.688,274.496L274.688,274.496z"/>
							</g>
							<g>
								<path style="fill:#FB929C;" d="M271.869,271.414c0.818-2.081,3.438-2.151,5.244-2.827c1.947-0.615,3.881-1.281,5.76-2.084
									c-1.776,1.036-3.722,1.734-5.667,2.382C275.365,269.558,272.91,269.483,271.869,271.414L271.869,271.414z"/>
							</g>
							<g>
								<path style="fill:#FB929C;" d="M272.078,266.707c2.741-1.045,6.83-2.425,9.499-3.541
									C278.637,264.837,275.355,265.912,272.078,266.707L272.078,266.707z"/>
							</g>
						</g>
					</g>
				</g>
			</g>
		</g>
		<g>
			<path style="fill:#E0A23C;" d="M348.396,151.952c0,0,74.42,6.94,63.036,84.788l-24.797-6.92l17.931,45.633l47.435-28.473
				l-21.639-6.408C430.362,240.572,440.744,157.599,348.396,151.952z"/>
			<path style="fill:#558283;" d="M126.61,291.005c0,0-62.031-41.697-14.793-104.612l18.465,17.94l6.085-48.651l-55.276,2.311
				l15.937,15.979C97.027,173.972,48.216,241.868,126.61,291.005z"/>
		</g>
	</g>
</g>
</svg>
